# Blender v2.70 (sub 0) OBJ File: 'game_board.blend'
# www.blender.org
o Cube.008
v -0.230149 0.400000 -0.095330
v -0.221731 0.391064 -0.091843
v -0.176148 0.400000 -0.176148
v -0.169705 0.391064 -0.169705
v -0.095331 0.400000 -0.230149
v -0.091844 0.391064 -0.221730
v 0.000000 0.400000 -0.249110
v 0.000000 0.391064 -0.239999
v 0.095331 0.400000 -0.230149
v 0.091845 0.391064 -0.221730
v 0.176149 0.400000 -0.176148
v 0.169706 0.391064 -0.169705
v 0.230149 0.400000 -0.095330
v 0.221731 0.391064 -0.091843
v 0.249112 0.400000 0.000000
v 0.240001 0.391064 0.000000
v 0.230149 0.400000 0.095331
v 0.221731 0.391064 0.091845
v 0.176149 0.400000 0.176149
v 0.169706 0.391064 0.169706
v 0.095332 0.400000 0.230150
v 0.091845 0.391064 0.221732
v 0.000000 0.400000 0.249112
v 0.000000 0.391064 0.240000
v -0.095330 0.400000 0.230150
v -0.091843 0.391064 0.221732
v -0.176148 0.400000 0.176149
v -0.169705 0.391064 0.169706
v -0.230149 0.400000 0.095332
v -0.221731 0.391064 0.091845
v -0.239999 0.391064 0.000000
v -0.249111 0.400000 0.000000
v -0.219243 0.384674 -0.219243
v -0.118655 0.384674 0.286457
v 0.118653 0.384674 0.286457
v 0.286456 0.384674 0.118654
v 0.286457 0.384674 -0.118654
v 0.118654 0.384674 -0.286455
v -0.310057 0.384674 0.000000
v -0.118654 0.384674 -0.286455
v -0.219243 0.384674 0.219244
v -0.286455 0.384674 -0.118653
v -0.000000 0.384674 0.310058
v 0.219244 0.384674 0.219244
v 0.310058 0.384674 0.000001
v 0.219244 0.384674 -0.219243
v 0.000000 0.384674 -0.310057
v -0.286455 0.384674 0.118655
v -0.112253 0.400000 -0.271004
v -0.102049 0.400000 -0.246367
v -0.207417 0.400000 0.207418
v -0.188562 0.400000 0.188562
v -0.188561 0.400000 -0.188561
v -0.207417 0.400000 -0.207417
v -0.271004 0.400000 -0.112253
v -0.246367 0.400000 -0.102048
v -0.102048 0.400000 0.246368
v -0.112255 0.400000 0.271005
v -0.000000 0.400000 0.293334
v -0.000000 0.400000 0.266667
v 0.102049 0.400000 0.246368
v 0.112253 0.400000 0.271005
v 0.207418 0.400000 0.207418
v 0.188562 0.400000 0.188562
v 0.246368 0.400000 0.102049
v 0.271005 0.400000 0.112254
v 0.293334 0.400000 0.000000
v 0.266667 0.400000 0.000000
v 0.246368 0.400000 -0.102049
v 0.271005 0.400000 -0.112253
v 0.207417 0.400000 -0.207417
v 0.188562 0.400000 -0.188561
v 0.102049 0.400000 -0.246367
v 0.112254 0.400000 -0.271004
v 0.000000 0.400000 -0.293332
v 0.000000 0.400000 -0.266666
v -0.266666 0.400000 0.000000
v -0.293333 0.400000 0.000000
v -0.271004 0.400000 0.112255
v -0.246367 0.400000 0.102049
v -0.169705 0.362950 -0.169705
v -0.091843 0.362950 0.221732
v -0.221731 0.362950 -0.091843
v -0.239999 0.362950 0.000000
v 0.000000 0.362950 0.240000
v 0.091845 0.362950 0.221732
v 0.169706 0.362950 0.169706
v 0.221731 0.362950 0.091845
v 0.240001 0.362950 0.000000
v 0.221731 0.362950 -0.091843
v 0.169706 0.362950 -0.169705
v 0.091845 0.362950 -0.221730
v 0.000000 0.362950 -0.239999
v -0.091844 0.362950 -0.221730
v -0.221731 0.362950 0.091845
v -0.169705 0.362950 0.169706
v -0.325451 0.327928 0.000000
v 0.300679 0.327928 0.124546
v 0.325452 0.327928 0.000001
v 0.300679 0.327928 -0.124545
v 0.230129 0.327928 -0.230129
v 0.124545 0.327928 -0.300678
v 0.000000 0.327928 -0.325451
v -0.124545 0.327928 -0.300678
v -0.300678 0.327928 0.124546
v -0.230128 0.327928 0.230130
v -0.230129 0.327928 -0.230129
v -0.300678 0.327928 -0.124544
v -0.124547 0.327928 0.300679
v -0.000001 0.327928 0.325452
v 0.124544 0.327928 0.300679
v 0.230130 0.327928 0.230130
v -0.221731 -0.000000 -0.091843
v -0.169705 -0.000000 -0.169705
v -0.091844 -0.000000 -0.221730
v 0.000000 -0.000000 -0.239999
v 0.091845 -0.000000 -0.221730
v 0.169706 -0.000000 -0.169705
v 0.221731 -0.000000 -0.091843
v 0.240001 -0.000000 0.000000
v 0.221731 -0.000000 0.091845
v 0.169706 -0.000000 0.169706
v 0.091845 -0.000000 0.221732
v 0.000000 -0.000000 0.240000
v -0.091843 -0.000000 0.221732
v -0.169705 -0.000000 0.169706
v -0.221731 -0.000000 0.091845
v -0.239999 -0.000000 0.000000
v -0.298040 0.365678 -0.123451
v -0.228109 0.365678 -0.228110
v -0.123452 0.365678 -0.298040
v 0.000000 0.365678 -0.322596
v 0.123452 0.365678 -0.298040
v 0.228109 0.365678 -0.228110
v 0.298041 0.365678 -0.123451
v 0.322597 0.365678 0.000001
v 0.298040 0.365678 0.123452
v 0.228111 0.365678 0.228111
v 0.123451 0.365678 0.298041
v -0.000001 0.365678 0.322597
v -0.123454 0.365678 0.298041
v -0.228109 0.365678 0.228111
v -0.298039 0.365678 0.123453
v -0.322596 0.365678 0.000000
v -0.323598 -0.000000 -0.134037
v -0.247670 -0.000000 -0.247670
v -0.134039 -0.000000 -0.323597
v 0.000000 -0.000000 -0.350259
v 0.134038 -0.000000 -0.323597
v 0.247670 -0.000000 -0.247670
v 0.323598 -0.000000 -0.134038
v 0.350260 -0.000000 0.000001
v 0.323598 -0.000000 0.134039
v 0.247672 -0.000000 0.247672
v 0.134037 -0.000000 0.323597
v -0.000001 -0.000000 0.350259
v -0.134040 -0.000000 0.323597
v -0.247670 -0.000000 0.247672
v -0.323597 -0.000000 0.134039
v -0.350258 -0.000000 0.000000
vt 0.746802 0.189574
vt 0.685345 0.189574
vt 0.685345 0.177712
vt 0.870468 0.189574
vt 0.808456 0.189574
vt 0.808456 0.177712
vt 0.254078 0.177712
vt 0.254078 0.189574
vt 0.191809 0.189574
vt 0.191809 0.177712
vt 0.129279 0.189574
vt 0.500979 0.217918
vt 0.439098 0.217918
vt 0.439098 0.202228
vt 0.932871 0.177712
vt 0.932871 0.189574
vt 0.623968 0.189574
vt 0.623968 0.177712
vt 0.129279 0.238010
vt 0.129279 0.229155
vt 0.191809 0.229155
vt 0.995724 0.238010
vt 0.932871 0.238010
vt 0.932871 0.229155
vt 0.067251 0.189574
vt 0.005611 0.189574
vt 0.005611 0.177712
vt 0.377731 0.238010
vt 0.377731 0.229155
vt 0.439098 0.229155
vt 0.316085 0.189574
vt 0.746802 0.238010
vt 0.746802 0.229155
vt 0.808456 0.229155
vt 0.439098 0.238010
vt 0.500979 0.229155
vt 0.995724 0.217918
vt 0.932871 0.217918
vt 0.932871 0.202228
vt 0.623968 0.489947
vt 0.562545 0.489947
vt 0.562545 0.256820
vt 0.067251 0.158942
vt 0.005611 0.158942
vt 0.005611 0.002943
vt 0.623968 0.229155
vt 0.562545 0.229155
vt 0.562545 0.217918
vt 0.808456 0.202228
vt 0.746802 0.202228
vt 0.685345 0.202228
vt 0.623968 0.202228
vt 0.685345 0.002943
vt 0.685345 0.158942
vt 0.623968 0.158942
vt 0.129279 0.202228
vt 0.067251 0.202228
vt 0.870468 0.229155
vt 0.870468 0.217918
vt 0.254078 0.217918
vt 0.191809 0.217918
vt 0.191809 0.202228
vt 0.316085 0.217918
vt 0.316085 0.229155
vt 0.254078 0.229155
vt 0.685345 0.217918
vt 0.623968 0.217918
vt 0.808456 0.217918
vt 0.746802 0.217918
vt 0.685345 0.229155
vt 0.377731 0.217918
vt 0.377731 0.158942
vt 0.316085 0.158942
vt 0.316085 0.002943
vt 0.316085 0.238010
vt 0.254078 0.238010
vt 0.067251 0.238010
vt 0.005611 0.238010
vt 0.005611 0.229155
vt 0.870468 0.238010
vt 0.685345 0.238010
vt 0.067251 0.229155
vt 0.500979 0.238010
vt 0.377731 0.189574
vt 0.316085 0.177712
vt 0.562545 0.238010
vt 0.808456 0.256820
vt 0.746802 0.256820
vt 0.067251 0.177712
vt 0.191809 0.238010
vt 0.562545 0.189574
vt 0.562545 0.177712
vt 0.808456 0.238010
vt 0.500979 0.189574
vt 0.005611 0.217918
vt 0.067251 0.217918
vt 0.377731 0.202228
vt 0.129279 0.217918
vt 0.995724 0.189574
vt 0.870468 0.202228
vt 0.254078 0.002943
vt 0.254078 0.158942
vt 0.191809 0.158942
vt 0.500979 0.489947
vt 0.439098 0.489947
vt 0.439098 0.256820
vt 0.623968 0.238010
vt 0.316085 0.202228
vt 0.562545 0.202228
vt 0.500979 0.202228
vt 0.439098 0.177712
vt 0.439098 0.189574
vt 0.129279 0.002943
vt 0.129279 0.158942
vt 0.500979 0.177712
vt 0.191809 0.489947
vt 0.129279 0.489947
vt 0.129279 0.256820
vt 0.870468 0.256820
vt 0.808456 0.158942
vt 0.746802 0.177712
vt 0.746802 0.002943
vt 0.746802 0.158942
vt 0.808456 0.489947
vt 0.746802 0.489947
vt 0.377731 0.489947
vt 0.316085 0.489947
vt 0.316085 0.256820
vt 0.067251 0.489947
vt 0.005611 0.489947
vt 0.005611 0.256820
vt 0.870468 0.177712
vt 0.870468 0.158942
vt 0.439098 0.158942
vt 0.191809 0.002943
vt 0.254078 0.489947
vt 0.254078 0.256820
vt 0.808456 0.002943
vt 0.439098 0.002943
vt 0.562545 0.002943
vt 0.562545 0.158942
vt 0.500979 0.158942
vt 0.377731 0.177712
vt 0.191809 0.256820
vt 0.067251 0.256820
vt 0.377731 0.256820
vt 0.005611 0.202228
vt 0.254078 0.202228
vt 0.685345 0.489947
vt 0.685345 0.256820
vt 0.623968 0.256820
vt 0.500979 0.256820
vt 0.995724 0.177712
vt 0.932871 0.158942
vt 0.932871 0.002943
vt 0.870468 0.489947
vt 0.932871 0.256820
vt 0.995724 0.256820
vt 0.995724 0.489947
vt 0.932871 0.489947
vt 0.129279 0.177712
vt 0.500979 0.002943
vt 0.995724 0.158942
vt 0.995724 0.202228
vt 0.995724 0.229155
vt 0.623968 0.002943
vt 0.067251 0.002943
vt 0.377731 0.002943
vt 0.870468 0.002943
vt 0.995724 0.002943
vn -0.767083 0.641499 0.000000
vn -0.708701 0.641499 -0.293527
vn -0.877041 0.314341 -0.363262
vn -0.542405 0.641499 0.542405
vn -0.708701 0.641499 0.293558
vn -0.877041 0.314341 0.363262
vn 0.949278 0.314341 0.000000
vn 0.767083 0.641499 0.000000
vn 0.708701 0.641499 0.293558
vn 0.877041 0.314341 0.363262
vn 0.542405 0.641530 0.542405
vn 0.000000 0.999969 0.000000
vn 0.000000 1.000000 0.000000
vn 0.153233 0.916288 -0.369976
vn -0.363262 0.314341 0.877041
vn -0.293558 0.641499 0.708701
vn -0.542405 0.641499 -0.542405
vn -0.671255 0.314341 -0.671255
vn -0.646352 0.405438 -0.646352
vn -0.237800 0.941740 -0.237800
vn -0.310709 0.941740 -0.128697
vn 0.000000 0.405438 -0.914090
vn 0.349803 0.405438 -0.844508
vn 0.128697 0.941740 -0.310709
vn 0.293527 0.641499 0.708701
vn 0.000000 0.641499 0.767083
vn 0.000000 0.314341 0.949278
vn -0.646352 0.405438 0.646352
vn -0.237800 0.941740 0.237800
vn -0.128697 0.941740 0.310709
vn 0.708701 0.641499 -0.293558
vn 0.914090 0.405438 0.000000
vn 0.336314 0.941740 0.000000
vn 0.310709 0.941740 -0.128697
vn -0.349803 0.405438 0.844508
vn 0.000000 0.941740 0.336314
vn -0.153233 0.916288 0.369976
vn 0.707108 0.000000 0.707106
vn 0.382684 0.000000 0.923879
vn 0.382672 0.000000 0.923856
vn 0.381573 0.075411 0.921232
vn 0.000000 0.075411 0.997131
vn 0.000001 0.075432 0.997151
vn 0.237800 0.941740 0.237800
vn 0.128697 0.941740 0.310709
vn -0.369976 0.916288 0.153233
vn -0.400464 0.916288 0.000000
vn -0.369976 0.916288 -0.153233
vn -0.283151 0.916288 -0.283151
vn -0.921248 0.075434 -0.381591
vn -0.921232 0.075411 -0.381573
vn -0.705069 0.075411 -0.705069
vn 0.283151 0.916288 0.283151
vn 0.153233 0.916288 0.369976
vn 0.237800 0.941740 -0.237800
vn 0.369976 0.916288 0.153233
vn -0.310709 0.941740 0.128697
vn -0.336314 0.941740 0.000000
vn 0.310709 0.941740 0.128697
vn 0.705069 0.075411 -0.705069
vn 0.921232 0.075411 -0.381573
vn 0.921246 0.075432 -0.381596
vn -0.844508 0.405438 0.349803
vn -0.914090 0.405438 0.000000
vn -0.349803 0.405438 -0.844508
vn 0.000000 0.941740 -0.336314
vn 0.646352 0.405438 -0.646352
vn 0.844508 0.405438 0.349803
vn -0.128697 0.941740 -0.310709
vn 0.000000 0.405438 0.914090
vn 0.542405 0.641499 -0.542405
vn 0.877041 0.314341 -0.363262
vn 0.349803 0.405438 0.844508
vn 0.923856 0.000000 -0.382672
vn 1.000000 0.000000 0.000000
vn 0.363262 0.314341 0.877041
vn -0.844508 0.405438 -0.349803
vn -0.293527 0.641499 -0.708701
vn -0.363262 0.314341 -0.877041
vn 0.844508 0.405438 -0.349803
vn 0.000000 0.641499 -0.767083
vn 0.283151 0.916288 -0.283151
vn -0.283151 0.916288 0.283151
vn 0.997151 0.075433 0.000001
vn 0.997131 0.075411 0.000000
vn 0.921232 0.075411 0.381573
vn 0.000001 0.000000 1.000000
vn -0.382680 0.000000 0.923881
vn -0.382672 0.000000 0.923856
vn 0.646352 0.405438 0.646352
vn 0.369976 0.916288 -0.153233
vn -0.153233 0.916288 -0.369976
vn 0.000000 0.916288 -0.400464
vn 0.363262 0.314341 -0.877041
vn 0.293558 0.641499 -0.708701
vn 0.705089 0.075434 0.705095
vn 0.705069 0.075411 0.705069
vn 0.000000 0.314341 -0.949278
vn -0.923878 0.000000 -0.382686
vn -0.707109 0.000000 -0.707104
vn -0.707083 0.000000 -0.707083
vn 0.707083 0.000000 -0.707083
vn -0.921232 0.075411 0.381573
vn -0.949278 0.314341 0.000000
vn -0.997151 0.075433 -0.000000
vn -0.997131 0.075411 0.000000
vn 0.923879 0.000000 -0.382684
vn -0.707108 0.000000 0.707105
vn -0.923879 0.000000 0.382684
vn -0.923856 0.000000 0.382672
vn -0.382685 0.000000 -0.923879
vn 0.000001 0.000000 -1.000000
vn 0.000000 0.000000 -1.000000
vn -0.671255 0.314341 0.671255
vn -0.705069 0.075411 0.705069
vn 0.381573 0.075411 -0.921232
vn 0.921248 0.075434 0.381592
vn -1.000000 0.000000 0.000001
vn -0.999969 0.000000 0.000000
vn -0.921248 0.075434 0.381593
vn 0.381594 0.075433 -0.921247
vn -0.381596 0.075434 -0.921246
vn -0.381573 0.075411 -0.921232
vn 0.000000 0.075411 -0.997131
vn 0.671255 0.314341 -0.671255
vn -0.923856 0.000000 -0.382672
vn -0.382672 0.000000 -0.923856
vn -0.707083 0.000000 0.707083
vn 0.000000 0.916288 0.400464
vn 0.400464 0.916288 0.000000
vn 0.923880 0.000000 0.382683
vn 0.923856 0.000000 0.382672
vn 0.707083 0.000000 0.707083
vn 0.000000 0.000000 0.999969
vn -0.381573 0.075411 0.921232
vn -0.381595 0.075433 0.921246
vn 0.707106 0.000000 -0.707108
vn 0.382672 0.000000 -0.923856
vn 0.382683 0.000000 -0.923880
vn 0.671255 0.314341 0.671255
vn 0.000001 0.075434 -0.997151
vn -0.705092 0.075434 -0.705092
vn 0.381587 0.075432 0.921250
vn 0.705090 0.075433 -0.705094
vn -0.705092 0.075434 0.705092
s 1
f 39/1/1 42/2/2 129/3/3
f 41/4/4 48/5/5 143/6/6
f 136/7/7 45/8/8 36/9/9
f 137/10/10 36/9/9 44/11/11
f 76/12/12 73/13/13 74/14/14
f 141/15/15 34/16/16 41/4/4
f 42/2/2 33/17/17 130/18/18
f 20/19/19 19/20/20 17/21/21
f 24/22/22 26/23/23 25/24/24
f 35/25/25 43/26/26 140/27/27
f 12/28/28 11/29/29 9/30/30
f 37/31/31 45/8/8 136/7/7
f 31/32/32 32/33/33 29/34/34
f 10/35/35 9/30/30 7/36/36
f 60/37/13 57/38/13 58/39/37
f 114/40/38 115/41/39 94/42/40
f 111/43/41 110/44/42 156/45/43
f 3/46/44 5/47/45 50/48/12
f 48/5/5 79/49/46 78/50/47
f 55/51/48 54/52/49 33/17/17
f 145/53/50 108/54/51 107/55/52
f 44/11/11 63/56/53 62/57/54
f 25/24/24 27/58/55 52/59/12
f 68/60/12 65/61/13 66/62/56
f 69/63/12 13/64/57 15/65/58
f 55/51/48 56/66/13 53/67/13
f 79/49/46 80/68/12 77/69/13
f 32/33/33 1/70/59 56/66/13
f 72/71/13 11/29/29 13/64/57
f 101/72/60 100/73/61 151/74/62
f 14/75/63 16/76/64 15/65/58
f 22/77/65 24/78/22 23/79/66
f 12/28/28 14/75/63 13/64/57
f 28/80/67 27/58/55 25/24/24
f 31/32/32 2/81/68 1/70/59
f 20/19/19 22/77/65 21/82/69
f 8/83/70 7/36/36 5/47/45
f 46/84/71 37/31/31 135/85/72
f 6/86/73 5/47/45 3/46/44
f 95/87/74 84/88/75 31/32/32
f 44/11/11 35/25/25 139/89/76
f 18/90/77 17/21/21 15/65/58
f 33/17/17 40/91/78 131/92/79
f 30/93/80 29/34/34 27/58/55
f 131/92/79 40/91/78 47/94/81
f 73/13/13 9/30/30 11/29/29
f 21/82/69 23/79/66 60/95/13
f 19/20/20 21/82/69 61/96/13
f 71/97/82 72/71/13 69/63/12
f 64/98/13 61/96/13 62/57/54
f 43/99/26 34/16/16 141/15/15
f 51/100/83 52/59/12 80/68/12
f 1/70/59 3/46/44 53/67/13
f 152/101/84 99/102/85 98/103/86
f 116/104/87 117/105/88 92/106/89
f 2/81/68 4/107/90 3/46/44
f 71/97/82 70/108/91 37/31/31
f 68/60/12 15/65/58 17/21/21
f 40/91/78 49/109/92 75/110/93
f 133/111/94 38/112/95 46/84/71
f 154/113/96 112/114/97 111/43/41
f 50/48/12 5/47/45 7/36/36
f 132/115/98 47/94/81 38/112/95
f 121/116/99 122/117/100 87/118/101
f 96/119/102 95/87/74 30/93/80
f 105/120/103 143/6/6 144/121/104
f 100/73/61 135/85/72 136/7/7
f 160/122/105 97/123/106 108/54/51
f 108/54/51 129/3/3 130/18/18
f 127/124/107 128/125/75 84/88/75
f 118/126/108 119/127/109 90/128/110
f 123/129/111 124/130/112 85/131/113
f 51/100/83 79/49/46 48/5/5
f 141/15/15 142/132/114 106/133/115
f 132/115/98 133/111/94 102/134/116
f 153/135/117 98/103/86 112/114/97
f 75/110/93 74/14/14 38/112/95
f 119/127/109 120/136/118 89/137/119
f 106/133/115 105/120/103 159/138/120
f 149/139/121 102/134/116 101/72/60
f 53/67/13 50/48/12 49/109/92
f 147/140/122 104/141/123 103/142/124
f 133/111/94 134/143/125 101/72/60
f 120/136/118 121/116/99 88/144/126
f 86/145/127 85/131/113 24/78/22
f 92/106/89 91/146/128 12/28/28
f 107/55/52 130/18/18 131/92/79
f 91/146/128 90/128/110 14/75/63
f 100/73/61 99/102/85 152/101/84
f 144/121/104 129/3/3 108/54/51
f 136/7/7 137/10/10 98/103/86
f 62/57/54 59/147/129 43/26/26
f 33/17/17 54/52/49 49/109/92
f 69/63/12 68/60/12 67/148/130
f 89/137/119 88/144/126 18/90/77
f 128/125/75 113/149/131 83/150/132
f 159/138/120 105/120/103 97/123/106
f 81/151/133 94/42/40 6/86/73
f 48/5/5 39/1/1 144/121/104
f 74/14/14 73/13/13 72/71/13
f 90/128/110 89/137/119 16/76/64
f 50/48/12 76/12/12 75/110/93
f 36/9/9 66/62/56 63/56/53
f 93/152/134 92/106/89 10/35/35
f 94/42/40 93/152/134 8/83/70
f 78/50/47 77/69/13 56/66/13
f 78/50/47 55/51/48 42/2/2
f 83/150/132 81/151/133 4/107/90
f 88/144/126 87/118/101 20/19/19
f 87/118/101 86/145/127 22/77/65
f 65/61/13 64/98/13 63/56/53
f 57/38/13 52/59/12 51/100/83
f 58/39/37 51/100/83 41/4/4
f 27/58/55 29/34/34 80/68/12
f 140/153/27 141/15/15 109/154/135
f 157/155/136 109/154/135 106/133/115
f 29/34/34 32/33/33 77/69/13
f 61/96/13 60/95/13 59/147/129
f 70/108/91 67/148/130 45/8/8
f 126/156/137 127/124/107 95/87/74
f 142/132/114 143/6/6 105/120/103
f 82/157/138 96/119/102 28/80/67
f 101/72/60 134/143/125 135/85/72
f 85/158/113 124/159/112 125/160/139
f 117/105/88 118/126/108 91/146/128
f 84/88/75 83/150/132 2/81/68
f 38/112/95 74/14/14 71/97/82
f 137/10/10 138/161/140 112/114/97
f 67/148/130 66/62/56 36/9/9
f 148/162/141 103/142/124 102/134/116
f 115/41/39 116/104/87 93/152/134
f 125/160/139 126/156/137 96/119/102
f 65/61/13 17/21/21 19/20/20
f 104/141/123 131/92/79 132/115/98
f 113/149/131 114/40/38 81/151/133
f 76/12/12 7/36/36 9/30/30
f 110/163/42 109/154/135 157/155/136
f 85/158/113 82/157/138 26/23/23
f 122/117/100 123/129/111 86/145/127
f 59/164/129 58/39/37 34/16/16
f 111/43/41 139/89/76 140/27/27
f 23/165/66 25/24/24 57/38/13
f 112/114/97 138/161/140 139/89/76
f 146/166/142 107/55/52 104/141/123
f 144/121/104 39/1/1 129/3/3
f 142/132/114 41/4/4 143/6/6
f 137/10/10 136/7/7 36/9/9
f 138/161/140 137/10/10 44/11/11
f 75/110/93 76/12/12 74/14/14
f 142/132/114 141/15/15 41/4/4
f 129/3/3 42/2/2 130/18/18
f 18/90/77 20/19/19 17/21/21
f 23/165/66 24/22/22 25/24/24
f 139/89/76 35/25/25 140/27/27
f 10/35/35 12/28/28 9/30/30
f 135/85/72 37/31/31 136/7/7
f 30/93/80 31/32/32 29/34/34
f 8/83/70 10/35/35 7/36/36
f 59/164/129 60/37/13 58/39/37
f 81/151/133 114/40/38 94/42/40
f 155/167/143 111/43/41 156/45/43
f 53/67/13 3/46/44 50/48/12
f 39/1/1 48/5/5 78/50/47
f 42/2/2 55/51/48 33/17/17
f 146/166/142 145/53/50 107/55/52
f 35/25/25 44/11/11 62/57/54
f 57/38/13 25/24/24 52/59/12
f 67/148/130 68/60/12 66/62/56
f 68/60/12 69/63/12 15/65/58
f 54/52/49 55/51/48 53/67/13
f 78/50/47 79/49/46 77/69/13
f 77/69/13 32/33/33 56/66/13
f 69/63/12 72/71/13 13/64/57
f 150/168/144 101/72/60 151/74/62
f 13/64/57 14/75/63 15/65/58
f 21/82/69 22/77/65 23/79/66
f 11/29/29 12/28/28 13/64/57
f 26/23/23 28/80/67 25/24/24
f 32/33/33 31/32/32 1/70/59
f 19/20/20 20/19/19 21/82/69
f 6/86/73 8/83/70 5/47/45
f 134/143/125 46/84/71 135/85/72
f 4/107/90 6/86/73 3/46/44
f 30/93/80 95/87/74 31/32/32
f 138/161/140 44/11/11 139/89/76
f 16/76/64 18/90/77 15/65/58
f 130/18/18 33/17/17 131/92/79
f 28/80/67 30/93/80 27/58/55
f 132/115/98 131/92/79 47/94/81
f 72/71/13 73/13/13 11/29/29
f 61/96/13 21/82/69 60/95/13
f 64/98/13 19/20/20 61/96/13
f 70/108/91 71/97/82 69/63/12
f 63/56/53 64/98/13 62/57/54
f 140/153/27 43/99/26 141/15/15
f 79/49/46 51/100/83 80/68/12
f 56/66/13 1/70/59 53/67/13
f 153/135/117 152/101/84 98/103/86
f 93/152/134 116/104/87 92/106/89
f 1/70/59 2/81/68 3/46/44
f 46/84/71 71/97/82 37/31/31
f 65/61/13 68/60/12 17/21/21
f 47/94/81 40/91/78 75/110/93
f 134/143/125 133/111/94 46/84/71
f 155/167/143 154/113/96 111/43/41
f 76/12/12 50/48/12 7/36/36
f 133/111/94 132/115/98 38/112/95
f 88/144/126 121/116/99 87/118/101
f 28/80/67 96/119/102 30/93/80
f 97/123/106 105/120/103 144/121/104
f 99/102/85 100/73/61 136/7/7
f 145/53/50 160/122/105 108/54/51
f 107/55/52 108/54/51 130/18/18
f 95/87/74 127/124/107 84/88/75
f 91/146/128 118/126/108 90/128/110
f 86/145/127 123/129/111 85/131/113
f 41/4/4 51/100/83 48/5/5
f 109/154/135 141/15/15 106/133/115
f 103/142/124 132/115/98 102/134/116
f 154/113/96 153/135/117 112/114/97
f 47/94/81 75/110/93 38/112/95
f 90/128/110 119/127/109 89/137/119
f 158/169/145 106/133/115 159/138/120
f 150/168/144 149/139/121 101/72/60
f 54/52/49 53/67/13 49/109/92
f 148/162/141 147/140/122 103/142/124
f 102/134/116 133/111/94 101/72/60
f 89/137/119 120/136/118 88/144/126
f 22/77/65 86/145/127 24/78/22
f 10/35/35 92/106/89 12/28/28
f 104/141/123 107/55/52 131/92/79
f 12/28/28 91/146/128 14/75/63
f 151/74/62 100/73/61 152/101/84
f 97/123/106 144/121/104 108/54/51
f 99/102/85 136/7/7 98/103/86
f 35/25/25 62/57/54 43/26/26
f 40/91/78 33/17/17 49/109/92
f 70/108/91 69/63/12 67/148/130
f 16/76/64 89/137/119 18/90/77
f 84/88/75 128/125/75 83/150/132
f 160/122/105 159/138/120 97/123/106
f 4/107/90 81/151/133 6/86/73
f 143/6/6 48/5/5 144/121/104
f 71/97/82 74/14/14 72/71/13
f 14/75/63 90/128/110 16/76/64
f 49/109/92 50/48/12 75/110/93
f 44/11/11 36/9/9 63/56/53
f 8/83/70 93/152/134 10/35/35
f 6/86/73 94/42/40 8/83/70
f 55/51/48 78/50/47 56/66/13
f 39/1/1 78/50/47 42/2/2
f 2/81/68 83/150/132 4/107/90
f 18/90/77 88/144/126 20/19/19
f 20/19/19 87/118/101 22/77/65
f 66/62/56 65/61/13 63/56/53
f 58/39/37 57/38/13 51/100/83
f 34/16/16 58/39/37 41/4/4
f 52/59/12 27/58/55 80/68/12
f 110/163/42 140/153/27 109/154/135
f 158/169/145 157/155/136 106/133/115
f 80/68/12 29/34/34 77/69/13
f 62/57/54 61/96/13 59/147/129
f 37/31/31 70/108/91 45/8/8
f 96/119/102 126/156/137 95/87/74
f 106/133/115 142/132/114 105/120/103
f 26/23/23 82/157/138 28/80/67
f 100/73/61 101/72/60 135/85/72
f 82/157/138 85/158/113 125/160/139
f 92/106/89 117/105/88 91/146/128
f 31/32/32 84/88/75 2/81/68
f 46/84/71 38/112/95 71/97/82
f 98/103/86 137/10/10 112/114/97
f 45/8/8 67/148/130 36/9/9
f 149/139/121 148/162/141 102/134/116
f 94/42/40 115/41/39 93/152/134
f 82/157/138 125/160/139 96/119/102
f 64/98/13 65/61/13 19/20/20
f 103/142/124 104/141/123 132/115/98
f 83/150/132 113/149/131 81/151/133
f 73/13/13 76/12/12 9/30/30
f 156/170/43 110/163/42 157/155/136
f 24/22/22 85/158/113 26/23/23
f 87/118/101 122/117/100 86/145/127
f 43/99/26 59/164/129 34/16/16
f 110/44/42 111/43/41 140/27/27
f 60/37/13 23/165/66 57/38/13
f 111/43/41 112/114/97 139/89/76
f 147/140/122 146/166/142 104/141/123
