v -0.25 -0.25 -0.25
v -0.25 -0.25 0.25
v -0.25 0.25 -0.25
v -0.25 0.25 0.25
v 0.25 -0.25 -0.25
v 0.25 -0.25 0.25
v 0.25 0.25 -0.25
v 0.25 0.25 0.25

vn 0.0 0.0 1.0
vn 0.0 0.0 -1.0
vn 0.0 1.0 0.0
vn 0.0 -1.0 0.0
vn 1.0 0.0 0.0
vn -1.0 0.0 0.0


vt 0.0 0.0
vt 0.166 0.0
vt 0.166 1.0
vt 0.0 1.0
vt 0.166 0.0
vt 0.332 0.0
vt 0.332 1.0
vt 0.166 1.0
vt 0.332 0.0
vt 0.498 0.0
vt 0.498 1.0
vt 0.332 1.0
vt 0.498 0.0
vt 0.664 0.0
vt 0.664 1.0
vt 0.498 1.0
vt 0.664 0.0
vt 0.830 0.0
vt 0.830 1.0
vt 0.664 1.0
vt 0.830 0.0
vt 0.996 0.0
vt 0.996 1.0
vt 0.830 1.0

f 1/1/2 7/3/2 5/2/2
f 1/1/2 3/4/2 7/3/2
f 1/5/6 4/7/6 3/6/6 
f 1/5/6 2/8/6 4/7/6 
f 3/9/3 8/11/3 7/10/3 
f 3/9/3 4/12/3 8/11/3 
f 5/17/5 7/18/5 8/19/5 
f 5/17/5 8/19/5 6/20/5 
f 1/13/4 5/14/4 6/15/4 
f 1/13/4 6/15/4 2/16/4 
f 2/21/1 6/22/1 8/23/1 
f 2/21/1 8/23/1 4/24/1